<mxfile host="Electron" modified="2023-10-01T14:14:09.312Z" agent="Mozilla/5.0 (Windows NT 10.0; Win64; x64) AppleWebKit/537.36 (KHTML, like Gecko) draw.io/22.0.0 Chrome/114.0.5735.289 Electron/25.8.3 Safari/537.36" version="22.0.0" etag="-hMrra103CfdrMb7Zm4t" type="device">
  <diagram id="W3Xx0dtwGMc-7SmaBF29" name="OrderService::createOrder, 일부 흐름은 생략">
    <mxGraphModel dx="1246" dy="976" grid="1" gridSize="10" guides="1" tooltips="1" connect="1" arrows="1" fold="1" page="1" pageScale="1" pageWidth="1654" pageHeight="2336" math="0" shadow="0">
      <root>
        <mxCell id="0" />
        <mxCell id="1" parent="0" />
        <mxCell id="7rYj2p9LEBdKFiUUeOYZ-1" value="OrderCreateHelper" style="shape=umlLifeline;perimeter=lifelinePerimeter;whiteSpace=wrap;html=1;container=1;dropTarget=0;collapsible=0;recursiveResize=0;outlineConnect=0;portConstraint=eastwest;newEdgeStyle={&quot;curved&quot;:0,&quot;rounded&quot;:0};" vertex="1" parent="1">
          <mxGeometry x="950" y="170" width="130" height="300" as="geometry" />
        </mxCell>
        <mxCell id="7rYj2p9LEBdKFiUUeOYZ-12" value="" style="html=1;points=[[0,0,0,0,5],[0,1,0,0,-5],[1,0,0,0,5],[1,1,0,0,-5]];perimeter=orthogonalPerimeter;outlineConnect=0;targetShapes=umlLifeline;portConstraint=eastwest;newEdgeStyle={&quot;curved&quot;:0,&quot;rounded&quot;:0};" vertex="1" parent="7rYj2p9LEBdKFiUUeOYZ-1">
          <mxGeometry x="60" y="180" width="10" height="40" as="geometry" />
        </mxCell>
        <mxCell id="7rYj2p9LEBdKFiUUeOYZ-13" value="saveOrder(order)" style="html=1;align=left;spacingLeft=2;endArrow=block;rounded=0;edgeStyle=orthogonalEdgeStyle;curved=0;rounded=0;" edge="1" target="7rYj2p9LEBdKFiUUeOYZ-12" parent="7rYj2p9LEBdKFiUUeOYZ-1">
          <mxGeometry relative="1" as="geometry">
            <mxPoint x="65" y="160" as="sourcePoint" />
            <Array as="points">
              <mxPoint x="95" y="190" />
            </Array>
          </mxGeometry>
        </mxCell>
        <mxCell id="7rYj2p9LEBdKFiUUeOYZ-2" value="OrderDomainService" style="shape=umlLifeline;perimeter=lifelinePerimeter;whiteSpace=wrap;html=1;container=1;dropTarget=0;collapsible=0;recursiveResize=0;outlineConnect=0;portConstraint=eastwest;newEdgeStyle={&quot;curved&quot;:0,&quot;rounded&quot;:0};" vertex="1" parent="1">
          <mxGeometry x="1200" y="170" width="130" height="300" as="geometry" />
        </mxCell>
        <mxCell id="7rYj2p9LEBdKFiUUeOYZ-3" value="1" style="endArrow=open;html=1;endSize=12;startArrow=diamondThin;startSize=14;startFill=1;edgeStyle=orthogonalEdgeStyle;align=left;verticalAlign=bottom;rounded=0;" edge="1" parent="1" target="7rYj2p9LEBdKFiUUeOYZ-2">
          <mxGeometry x="-1" y="3" relative="1" as="geometry">
            <mxPoint x="1010" y="260" as="sourcePoint" />
            <mxPoint x="1150" y="260" as="targetPoint" />
            <Array as="points">
              <mxPoint x="1060" y="260" />
              <mxPoint x="1060" y="260" />
            </Array>
          </mxGeometry>
        </mxCell>
        <mxCell id="7rYj2p9LEBdKFiUUeOYZ-4" value="validateAndInitiateOrder" style="text;strokeColor=none;align=center;fillColor=none;html=1;verticalAlign=middle;whiteSpace=wrap;rounded=0;fontSize=10;" vertex="1" parent="1">
          <mxGeometry x="1110" y="230" width="60" height="30" as="geometry" />
        </mxCell>
        <mxCell id="7rYj2p9LEBdKFiUUeOYZ-6" value="&lt;font style=&quot;font-size: 10px;&quot;&gt;return&lt;/font&gt;" style="html=1;verticalAlign=bottom;endArrow=open;dashed=1;endSize=8;curved=0;rounded=0;exitX=0.538;exitY=0.433;exitDx=0;exitDy=0;exitPerimeter=0;" edge="1" parent="1">
          <mxGeometry relative="1" as="geometry">
            <mxPoint x="1267.72" y="290.0000000000001" as="sourcePoint" />
            <mxPoint x="1012.28" y="290.0000000000001" as="targetPoint" />
          </mxGeometry>
        </mxCell>
        <mxCell id="7rYj2p9LEBdKFiUUeOYZ-7" value="OrderCreatedEvent" style="text;strokeColor=none;align=center;fillColor=none;html=1;verticalAlign=middle;whiteSpace=wrap;rounded=0;fontSize=10;" vertex="1" parent="1">
          <mxGeometry x="1110" y="290" width="60" height="30" as="geometry" />
        </mxCell>
        <mxCell id="7rYj2p9LEBdKFiUUeOYZ-14" value="OrderRepository" style="shape=umlLifeline;perimeter=lifelinePerimeter;whiteSpace=wrap;html=1;container=1;dropTarget=0;collapsible=0;recursiveResize=0;outlineConnect=0;portConstraint=eastwest;newEdgeStyle={&quot;curved&quot;:0,&quot;rounded&quot;:0};" vertex="1" parent="1">
          <mxGeometry x="1380" y="170" width="130" height="300" as="geometry" />
        </mxCell>
        <mxCell id="7rYj2p9LEBdKFiUUeOYZ-15" value="1" style="endArrow=open;html=1;endSize=12;startArrow=diamondThin;startSize=14;startFill=1;edgeStyle=orthogonalEdgeStyle;align=left;verticalAlign=bottom;rounded=0;" edge="1" parent="1" target="7rYj2p9LEBdKFiUUeOYZ-14">
          <mxGeometry x="-1" y="3" relative="1" as="geometry">
            <mxPoint x="1010" y="420" as="sourcePoint" />
            <mxPoint x="1180" y="450" as="targetPoint" />
            <Array as="points">
              <mxPoint x="1020" y="420" />
              <mxPoint x="1020" y="421" />
            </Array>
          </mxGeometry>
        </mxCell>
        <mxCell id="7rYj2p9LEBdKFiUUeOYZ-19" value="save(Order)" style="text;strokeColor=none;align=center;fillColor=none;html=1;verticalAlign=middle;whiteSpace=wrap;rounded=0;fontSize=10;" vertex="1" parent="1">
          <mxGeometry x="1110" y="393" width="60" height="30" as="geometry" />
        </mxCell>
        <mxCell id="7rYj2p9LEBdKFiUUeOYZ-20" value="&lt;font style=&quot;font-size: 10px;&quot;&gt;return&lt;/font&gt;" style="html=1;verticalAlign=bottom;endArrow=open;dashed=1;endSize=8;curved=0;rounded=0;" edge="1" parent="1">
          <mxGeometry relative="1" as="geometry">
            <mxPoint x="1444.5" y="450" as="sourcePoint" />
            <mxPoint x="1014.5" y="450" as="targetPoint" />
          </mxGeometry>
        </mxCell>
        <mxCell id="7rYj2p9LEBdKFiUUeOYZ-21" value="Order" style="text;strokeColor=none;align=center;fillColor=none;html=1;verticalAlign=middle;whiteSpace=wrap;rounded=0;fontSize=10;" vertex="1" parent="1">
          <mxGeometry x="1200" y="450" width="60" height="30" as="geometry" />
        </mxCell>
        <mxCell id="7rYj2p9LEBdKFiUUeOYZ-22" value="OrderCreateCommandHandler" style="shape=umlLifeline;perimeter=lifelinePerimeter;whiteSpace=wrap;html=1;container=1;dropTarget=0;collapsible=0;recursiveResize=0;outlineConnect=0;portConstraint=eastwest;newEdgeStyle={&quot;curved&quot;:0,&quot;rounded&quot;:0};" vertex="1" parent="1">
          <mxGeometry x="690" y="170" width="180" height="300" as="geometry" />
        </mxCell>
        <mxCell id="7rYj2p9LEBdKFiUUeOYZ-25" value="1" style="endArrow=open;html=1;endSize=12;startArrow=diamondThin;startSize=14;startFill=1;edgeStyle=orthogonalEdgeStyle;align=left;verticalAlign=bottom;rounded=0;" edge="1" parent="1" target="7rYj2p9LEBdKFiUUeOYZ-1">
          <mxGeometry x="-1" y="3" relative="1" as="geometry">
            <mxPoint x="770" y="240" as="sourcePoint" />
            <mxPoint x="1070" y="500" as="targetPoint" />
            <Array as="points">
              <mxPoint x="900" y="240" />
              <mxPoint x="900" y="240" />
            </Array>
          </mxGeometry>
        </mxCell>
        <mxCell id="7rYj2p9LEBdKFiUUeOYZ-26" value="persistOrder(CreateOrderCommand)" style="text;strokeColor=none;align=center;fillColor=none;html=1;verticalAlign=middle;whiteSpace=wrap;rounded=0;fontSize=10;" vertex="1" parent="1">
          <mxGeometry x="873" y="210" width="60" height="30" as="geometry" />
        </mxCell>
        <mxCell id="7rYj2p9LEBdKFiUUeOYZ-27" value="return" style="html=1;verticalAlign=bottom;endArrow=open;dashed=1;endSize=8;curved=0;rounded=0;" edge="1" parent="1">
          <mxGeometry relative="1" as="geometry">
            <mxPoint x="1010" y="260" as="sourcePoint" />
            <mxPoint x="780" y="260" as="targetPoint" />
          </mxGeometry>
        </mxCell>
        <mxCell id="7rYj2p9LEBdKFiUUeOYZ-28" value="OrderCreatedEvent" style="text;strokeColor=none;align=center;fillColor=none;html=1;verticalAlign=middle;whiteSpace=wrap;rounded=0;fontSize=10;" vertex="1" parent="1">
          <mxGeometry x="873" y="260" width="60" height="30" as="geometry" />
        </mxCell>
        <mxCell id="7rYj2p9LEBdKFiUUeOYZ-29" value="OrderApplicationService" style="shape=umlLifeline;perimeter=lifelinePerimeter;whiteSpace=wrap;html=1;container=1;dropTarget=0;collapsible=0;recursiveResize=0;outlineConnect=0;portConstraint=eastwest;newEdgeStyle={&quot;curved&quot;:0,&quot;rounded&quot;:0};" vertex="1" parent="1">
          <mxGeometry x="472" y="170" width="180" height="300" as="geometry" />
        </mxCell>
        <mxCell id="7rYj2p9LEBdKFiUUeOYZ-30" value="createOrder(CreateOrderCommand)" style="html=1;verticalAlign=bottom;startArrow=circle;startFill=1;endArrow=open;startSize=6;endSize=8;curved=0;rounded=0;" edge="1" parent="1" target="7rYj2p9LEBdKFiUUeOYZ-22">
          <mxGeometry width="80" relative="1" as="geometry">
            <mxPoint x="550" y="320" as="sourcePoint" />
            <mxPoint x="920" y="610" as="targetPoint" />
          </mxGeometry>
        </mxCell>
        <mxCell id="7rYj2p9LEBdKFiUUeOYZ-32" value="return" style="html=1;verticalAlign=bottom;endArrow=open;dashed=1;endSize=8;curved=0;rounded=0;" edge="1" parent="1">
          <mxGeometry relative="1" as="geometry">
            <mxPoint x="779.5" y="342" as="sourcePoint" />
            <mxPoint x="560" y="342" as="targetPoint" />
          </mxGeometry>
        </mxCell>
        <mxCell id="7rYj2p9LEBdKFiUUeOYZ-33" value="CreateOrderResponse" style="text;strokeColor=none;align=center;fillColor=none;html=1;verticalAlign=middle;whiteSpace=wrap;rounded=0;fontSize=10;" vertex="1" parent="1">
          <mxGeometry x="610" y="340" width="60" height="30" as="geometry" />
        </mxCell>
        <mxCell id="7rYj2p9LEBdKFiUUeOYZ-34" value="OrderController" style="shape=umlLifeline;perimeter=lifelinePerimeter;whiteSpace=wrap;html=1;container=1;dropTarget=0;collapsible=0;recursiveResize=0;outlineConnect=0;portConstraint=eastwest;newEdgeStyle={&quot;curved&quot;:0,&quot;rounded&quot;:0};" vertex="1" parent="1">
          <mxGeometry x="302" y="170" width="120" height="300" as="geometry" />
        </mxCell>
        <mxCell id="7rYj2p9LEBdKFiUUeOYZ-36" value="1" style="endArrow=open;html=1;endSize=12;startArrow=diamondThin;startSize=14;startFill=1;edgeStyle=orthogonalEdgeStyle;align=left;verticalAlign=bottom;rounded=0;" edge="1" parent="1" source="7rYj2p9LEBdKFiUUeOYZ-34">
          <mxGeometry x="-1" y="3" relative="1" as="geometry">
            <mxPoint x="380" y="500" as="sourcePoint" />
            <mxPoint x="560" y="320" as="targetPoint" />
          </mxGeometry>
        </mxCell>
        <mxCell id="7rYj2p9LEBdKFiUUeOYZ-37" value="&lt;font style=&quot;font-size: 10px;&quot;&gt;createOrder(CreateOrderCommand)&lt;/font&gt;" style="text;strokeColor=none;align=center;fillColor=none;html=1;verticalAlign=middle;whiteSpace=wrap;rounded=0;" vertex="1" parent="1">
          <mxGeometry x="434" y="290" width="60" height="30" as="geometry" />
        </mxCell>
        <mxCell id="7rYj2p9LEBdKFiUUeOYZ-38" value="return" style="html=1;verticalAlign=bottom;endArrow=open;dashed=1;endSize=8;curved=0;rounded=0;" edge="1" parent="1">
          <mxGeometry relative="1" as="geometry">
            <mxPoint x="559.5" y="350" as="sourcePoint" />
            <mxPoint x="360" y="350" as="targetPoint" />
          </mxGeometry>
        </mxCell>
        <mxCell id="7rYj2p9LEBdKFiUUeOYZ-39" value="CreateOrderResponse" style="text;strokeColor=none;align=center;fillColor=none;html=1;verticalAlign=middle;whiteSpace=wrap;rounded=0;fontSize=10;" vertex="1" parent="1">
          <mxGeometry x="434" y="350" width="60" height="30" as="geometry" />
        </mxCell>
        <mxCell id="7rYj2p9LEBdKFiUUeOYZ-40" value="order-service/&lt;br style=&quot;font-size: 12px;&quot;&gt;&amp;nbsp; order-application" style="text;strokeColor=none;align=left;fillColor=none;html=1;verticalAlign=middle;whiteSpace=wrap;rounded=0;fontSize=12;fontStyle=1" vertex="1" parent="1">
          <mxGeometry x="304" y="120" width="118" height="40" as="geometry" />
        </mxCell>
        <mxCell id="7rYj2p9LEBdKFiUUeOYZ-41" value="order-service/&lt;br style=&quot;font-size: 12px;&quot;&gt;&amp;nbsp; order-domain/&lt;br&gt;&amp;nbsp; &amp;nbsp; order-application-service&amp;nbsp;&amp;nbsp;" style="text;strokeColor=none;align=left;fillColor=none;html=1;verticalAlign=middle;whiteSpace=wrap;rounded=0;fontSize=12;fontStyle=1" vertex="1" parent="1">
          <mxGeometry x="474" y="120" width="178" height="40" as="geometry" />
        </mxCell>
        <mxCell id="7rYj2p9LEBdKFiUUeOYZ-42" value="order-service/&lt;br style=&quot;font-size: 12px;&quot;&gt;&amp;nbsp; order-domain/&lt;br&gt;&amp;nbsp; &amp;nbsp; order-application-service&amp;nbsp;&amp;nbsp;" style="text;strokeColor=none;align=left;fillColor=none;html=1;verticalAlign=middle;whiteSpace=wrap;rounded=0;fontSize=12;fontStyle=1" vertex="1" parent="1">
          <mxGeometry x="690" y="120" width="178" height="40" as="geometry" />
        </mxCell>
        <mxCell id="7rYj2p9LEBdKFiUUeOYZ-43" value="order-service/&lt;br style=&quot;font-size: 12px;&quot;&gt;&amp;nbsp; order-domain/&lt;br&gt;&amp;nbsp; &amp;nbsp; order-application-service&amp;nbsp;&amp;nbsp;" style="text;strokeColor=none;align=left;fillColor=none;html=1;verticalAlign=middle;whiteSpace=wrap;rounded=0;fontSize=12;fontStyle=1" vertex="1" parent="1">
          <mxGeometry x="933" y="120" width="178" height="40" as="geometry" />
        </mxCell>
        <mxCell id="7rYj2p9LEBdKFiUUeOYZ-44" value="order-service/&lt;br style=&quot;font-size: 12px;&quot;&gt;&amp;nbsp; order-domain/&lt;br&gt;&amp;nbsp; &amp;nbsp; order-domain-core&amp;nbsp;" style="text;strokeColor=none;align=left;fillColor=none;html=1;verticalAlign=middle;whiteSpace=wrap;rounded=0;fontSize=12;fontStyle=1" vertex="1" parent="1">
          <mxGeometry x="1190" y="120" width="140" height="40" as="geometry" />
        </mxCell>
        <mxCell id="7rYj2p9LEBdKFiUUeOYZ-45" value="order-service/&lt;br style=&quot;font-size: 12px;&quot;&gt;&amp;nbsp; order-dataaccess" style="text;strokeColor=none;align=left;fillColor=none;html=1;verticalAlign=middle;whiteSpace=wrap;rounded=0;fontSize=12;fontStyle=1" vertex="1" parent="1">
          <mxGeometry x="1375" y="120" width="115" height="40" as="geometry" />
        </mxCell>
      </root>
    </mxGraphModel>
  </diagram>
</mxfile>
